<?xml version="1.0" encoding="UTF-8"?> <svg xmlns="http://www.w3.org/2000/svg" xmlns:xlink="http://www.w3.org/1999/xlink" x="0" y="0" width="487" height="971" viewBox="0, 0, 487, 971"><g id="cone"><path d="M52.618,326.449 L239.202,968.43 L420.361,332.818 z" fill="#F58E34"></path><path d="M221.758,904.741 L249.039,931.49 L240.309,968.43 z" fill="#F8AD48"></path><path d="M212.665,879.266 L284.686,809.208 L308.693,720.044 L199.57,830.862 z" fill="#F8AD48"></path><path d="M175.833,749.341 L352.529,568.466 L380.714,474.207 L161.741,700.938 z" fill="#F8AD48"></path><path d="M137.734,618.143 L405.085,341.735 L331.972,340.461 L121.365,559.549 z" fill="#F8AD48"></path><path d="M183.565,327.723 L86.446,439.815 L98.449,485.671 L245.765,334.092 z" fill="#F8AD48"></path><path d="M149.737,656.356 L288.323,793.923 L273.046,848.695 L175.927,749.341 z" fill="#F8AD48"></path><path d="M79.899,419.435 L324.334,667.82 L310.147,720.044 L103.906,502.23 z" fill="#F8AD48"></path><path d="M363.618,532.8 L348.341,585.025 L91.902,325.175 L167.197,325.175 z" fill="#F8AD48"></path><path d="M273.046,328.997 L386.533,451.279 L401.811,400.328 L336.337,326.449 z" fill="#F8AD48"></path></g><g id="chocolate"><g><path d="M37.013,250.954 C30.232,232.34 26.204,212.709 25.352,192.5 C20.76,82.38 112.318,-3.187 229.905,1.42 C347.483,6.011 446.501,99.025 451.113,209.154 C451.943,229.358 449.537,248.751 444.318,266.888 C467.139,276.585 483.783,297.983 484.797,322.226 C486.138,354.473 459.339,379.514 424.905,378.158 C396.792,377.059 372.312,358.689 363.555,334.421 C356.774,358.082 333.769,374.591 305.644,373.497 C276.597,372.361 251.487,352.781 243.524,327.317 C237.661,352.235 214.101,369.911 185.059,368.779 C156.93,367.677 132.457,349.301 123.696,325.024 C116.939,348.706 93.934,365.215 65.794,364.112 C31.375,362.764 2.397,335.546 1.038,303.302 C0.029,279.061 14.922,258.915 37.013,250.954" fill="#AC572E"></path><path d="M65.9,236.7 C65.9,236.7 38.3,129.9 92.3,86.7 C92.3,86.7 110.3,81.9 100.7,107.1 C100.7,107.1 67.1,143.1 83.9,224.7 C83.9,224.7 85.1,253.5 65.9,236.7" fill="#AF6139"></path><path d="M129.5,73.5 C129.5,78.802 124.128,83.1 117.5,83.1 C110.872,83.1 105.5,78.802 105.5,73.5 C105.5,68.198 110.872,63.9 117.5,63.9 C124.128,63.9 129.5,68.198 129.5,73.5" fill="#AF6139"></path></g></g></svg> 